REM DIRINDEX 1\8,1\2\11,1\3\12,1\3\14,1\5\15,1\5\16,1\6\17,1\6\18,1\4\19,1\4\20,1\4\21,1\4\22,1\7\23,1\7\24,1\7\25,1\2\9\26,1\2\9\27,1\2\10\28,1\2\10\29,1\2\10\30,1\2\10\31,1\2\10\32,1\3\13\33,1\3\13\34,1\3\13\35
REM DIRNAME cjc123,folder01,folder02,folder03,folder04,folder05,folder06,folder07,folder08,folder09,folder10,folder11,folder12,folder13,folder14,folder15,folder16,folder17,folder18,folder19,folder20,folder21,folder22,folder23,folder24,folder25,folder26,folder27,folder28,folder29,folder30,folder31,folder32,folder33,folder34
TITLE ""
FILE "1-06 006_UNIT1_SET4.mp3" MP3
  TRACK 01 AUDIO
    TITLE "11:cjc123_0311"
    INDEX 01 00:00:00
  TRACK 02 AUDIO
    TITLE "0:"
    INDEX 01 00:02:45
  TRACK 03 AUDIO
    TITLE "28:cjc123_0312"
    INDEX 01 00:03:23
  TRACK 04 AUDIO
    TITLE "0:"
    INDEX 01 00:04:62
  TRACK 05 AUDIO
    TITLE "29:cjc123_0313"
    INDEX 01 00:04:70
  TRACK 06 AUDIO
    TITLE "0:"
    INDEX 01 00:06:14
  TRACK 07 AUDIO
    TITLE "30:cjc123_0314"
    INDEX 01 00:06:24
  TRACK 08 AUDIO
    TITLE "0:"
    INDEX 01 00:07:51
  TRACK 09 AUDIO
    TITLE "31:cjc123_0315"
    INDEX 01 00:08:15
  TRACK 10 AUDIO
    TITLE "0:"
    INDEX 01 00:11:42
  TRACK 11 AUDIO
    TITLE "32:cjc123_0316"
    INDEX 01 00:11:68
  TRACK 12 AUDIO
    TITLE "0:"
    INDEX 01 00:14:45
  TRACK 13 AUDIO
    TITLE "28:cjc123_0317"
    INDEX 01 00:15:36
  TRACK 14 AUDIO
    TITLE "0:"
    INDEX 01 00:16:44
  TRACK 15 AUDIO
    TITLE "29:cjc123_0318"
    INDEX 01 00:16:71
  TRACK 16 AUDIO
    TITLE "0:"
    INDEX 01 00:18:35
  TRACK 17 AUDIO
    TITLE "30:cjc123_0319"
    INDEX 01 00:18:41
  TRACK 18 AUDIO
    TITLE "0:"
    INDEX 01 00:19:63
  TRACK 19 AUDIO
    TITLE "31:cjc123_0320"
    INDEX 01 00:20:32
  TRACK 20 AUDIO
    TITLE "0:"
    INDEX 01 00:24:14
  TRACK 21 AUDIO
    TITLE "32:cjc123_0321"
    INDEX 01 00:24:55
  TRACK 22 AUDIO
    TITLE "0:"
    INDEX 01 00:28:29
  TRACK 23 AUDIO
    TITLE "28:cjc123_0322"
    INDEX 01 00:29:01
  TRACK 24 AUDIO
    TITLE "0:"
    INDEX 01 00:30:14
  TRACK 25 AUDIO
    TITLE "29:cjc123_0323"
    INDEX 01 00:30:20
  TRACK 26 AUDIO
    TITLE "0:"
    INDEX 01 00:31:47
  TRACK 27 AUDIO
    TITLE "30:cjc123_0324"
    INDEX 01 00:31:57
  TRACK 28 AUDIO
    TITLE "0:"
    INDEX 01 00:32:68
  TRACK 29 AUDIO
    TITLE "31:cjc123_0325"
    INDEX 01 00:33:40
  TRACK 30 AUDIO
    TITLE "0:"
    INDEX 01 00:36:29
  TRACK 31 AUDIO
    TITLE "32:cjc123_0326"
    INDEX 01 00:36:60
  TRACK 32 AUDIO
    TITLE "0:"
    INDEX 01 00:39:70
  TRACK 33 AUDIO
    TITLE "28:cjc123_0327"
    INDEX 01 00:40:24
  TRACK 34 AUDIO
    TITLE "0:"
    INDEX 01 00:41:26
  TRACK 35 AUDIO
    TITLE "29:cjc123_0328"
    INDEX 01 00:41:40
  TRACK 36 AUDIO
    TITLE "0:"
    INDEX 01 00:43:05
  TRACK 37 AUDIO
    TITLE "30:cjc123_0329"
    INDEX 01 00:43:15
  TRACK 38 AUDIO
    TITLE "0:"
    INDEX 01 00:44:09
  TRACK 39 AUDIO
    TITLE "31:cjc123_0330"
    INDEX 01 00:44:58
  TRACK 40 AUDIO
    TITLE "0:"
    INDEX 01 00:47:50
  TRACK 41 AUDIO
    TITLE "32:cjc123_0331"
    INDEX 01 00:48:06
  TRACK 42 AUDIO
    TITLE "0:"
    INDEX 01 00:50:50
  TRACK 43 AUDIO
    TITLE "28:cjc123_0332"
    INDEX 01 00:51:20
  TRACK 44 AUDIO
    TITLE "0:"
    INDEX 01 00:52:30
  TRACK 45 AUDIO
    TITLE "29:cjc123_0333"
    INDEX 01 00:52:51
  TRACK 46 AUDIO
    TITLE "0:"
    INDEX 01 00:54:09
  TRACK 47 AUDIO
    TITLE "30:cjc123_0334"
    INDEX 01 00:54:17
  TRACK 48 AUDIO
    TITLE "0:"
    INDEX 01 00:55:32
  TRACK 49 AUDIO
    TITLE "31:cjc123_0335"
    INDEX 01 00:56:25
  TRACK 50 AUDIO
    TITLE "0:"
    INDEX 01 00:58:69
  TRACK 51 AUDIO
    TITLE "32:cjc123_0336"
    INDEX 01 00:59:43
  TRACK 52 AUDIO
    TITLE "0:"
    INDEX 01 01:02:20
  TRACK 53 AUDIO
    TITLE "28:cjc123_0337"
    INDEX 01 01:02:61
  TRACK 54 AUDIO
    TITLE "0:"
    INDEX 01 01:03:69
  TRACK 55 AUDIO
    TITLE "29:cjc123_0338"
    INDEX 01 01:04:09
  TRACK 56 AUDIO
    TITLE "0:"
    INDEX 01 01:05:30
  TRACK 57 AUDIO
    TITLE "30:cjc123_0339"
    INDEX 01 01:05:38
  TRACK 58 AUDIO
    TITLE "0:"
    INDEX 01 01:06:45
  TRACK 59 AUDIO
    TITLE "31:cjc123_0340"
    INDEX 01 01:07:35
  TRACK 60 AUDIO
    TITLE "0:"
    INDEX 01 01:10:26
  TRACK 61 AUDIO
    TITLE "32:cjc123_0341"
    INDEX 01 01:10:53
  TRACK 62 AUDIO
    TITLE "0:"
    INDEX 01 01:13:36
  TRACK 63 AUDIO
    TITLE "28:cjc123_0342"
    INDEX 01 01:14:04
  TRACK 64 AUDIO
    TITLE "0:"
    INDEX 01 01:15:17
  TRACK 65 AUDIO
    TITLE "29:cjc123_0343"
    INDEX 01 01:15:29
  TRACK 66 AUDIO
    TITLE "0:"
    INDEX 01 01:16:38
  TRACK 67 AUDIO
    TITLE "30:cjc123_0344"
    INDEX 01 01:16:46
  TRACK 68 AUDIO
    TITLE "0:"
    INDEX 01 01:17:59
  TRACK 69 AUDIO
    TITLE "31:cjc123_0345"
    INDEX 01 01:18:35
  TRACK 70 AUDIO
    TITLE "0:"
    INDEX 01 01:21:41
  TRACK 71 AUDIO
    TITLE "32:cjc123_0346"
    INDEX 01 01:22:11
  TRACK 72 AUDIO
    TITLE "0:"
    INDEX 01 01:25:09
  TRACK 73 AUDIO
    TITLE "28:cjc123_0347"
    INDEX 01 01:25:58
  TRACK 74 AUDIO
    TITLE "0:"
    INDEX 01 01:26:66
  TRACK 75 AUDIO
    TITLE "29:cjc123_0348"
    INDEX 01 01:27:01
  TRACK 76 AUDIO
    TITLE "0:"
    INDEX 01 01:28:08
  TRACK 77 AUDIO
    TITLE "30:cjc123_0349"
    INDEX 01 01:28:18
  TRACK 78 AUDIO
    TITLE "0:"
    INDEX 01 01:29:27
  TRACK 79 AUDIO
    TITLE "31:cjc123_0350"
    INDEX 01 01:30:26
  TRACK 80 AUDIO
    TITLE "0:"
    INDEX 01 01:32:74
  TRACK 81 AUDIO
    TITLE "32:cjc123_0351"
    INDEX 01 01:33:46
  TRACK 82 AUDIO
    TITLE "0:"
    INDEX 01 01:36:35
  TRACK 83 AUDIO
    TITLE "28:cjc123_0352"
    INDEX 01 01:37:03
  TRACK 84 AUDIO
    TITLE "0:"
    INDEX 01 01:38:00
  TRACK 85 AUDIO
    TITLE "29:cjc123_0353"
    INDEX 01 01:38:24
  TRACK 86 AUDIO
    TITLE "0:"
    INDEX 01 01:39:23
  TRACK 87 AUDIO
    TITLE "30:cjc123_0354"
    INDEX 01 01:39:35
  TRACK 88 AUDIO
    TITLE "0:"
    INDEX 01 01:40:33
  TRACK 89 AUDIO
    TITLE "31:cjc123_0355"
    INDEX 01 01:41:10
  TRACK 90 AUDIO
    TITLE "0:"
    INDEX 01 01:44:62
  TRACK 91 AUDIO
    TITLE "32:cjc123_0356"
    INDEX 01 01:45:16
  TRACK 92 AUDIO
    TITLE "0:"
    INDEX 01 01:48:50
  TRACK 93 AUDIO
    TITLE "28:cjc123_0357"
    INDEX 01 01:49:28
  TRACK 94 AUDIO
    TITLE "0:"
    INDEX 01 01:50:23
  TRACK 95 AUDIO
    TITLE "29:cjc123_0358"
    INDEX 01 01:50:37
  TRACK 96 AUDIO
    TITLE "0:"
    INDEX 01 01:51:30
  TRACK 97 AUDIO
    TITLE "30:cjc123_0359"
    INDEX 01 01:51:42
  TRACK 98 AUDIO
    TITLE "0:"
    INDEX 01 01:52:38
  TRACK 99 AUDIO
    TITLE "31:cjc123_0360"
    INDEX 01 01:53:29
  TRACK 100 AUDIO
    TITLE "0:"
    INDEX 01 01:55:56
  TRACK 101 AUDIO
    TITLE "32:cjc123_0361"
    INDEX 01 01:56:04
  TRACK 102 AUDIO
    TITLE "0:"
    INDEX 01 01:58:48
  TRACK 103 AUDIO
    TITLE "28:cjc123_0362"
    INDEX 01 01:59:08
  TRACK 104 AUDIO
    TITLE "0:"
    INDEX 01 02:00:02
  TRACK 105 AUDIO
    TITLE "29:cjc123_0363"
    INDEX 01 02:00:27
  TRACK 106 AUDIO
    TITLE "0:"
    INDEX 01 02:01:35
  TRACK 107 AUDIO
    TITLE "30:cjc123_0364"
    INDEX 01 02:01:45
  TRACK 108 AUDIO
    TITLE "0:"
    INDEX 01 02:02:38
  TRACK 109 AUDIO
    TITLE "31:cjc123_0365"
    INDEX 01 02:03:14
  TRACK 110 AUDIO
    TITLE "0:"
    INDEX 01 02:06:06
  TRACK 111 AUDIO
    TITLE "32:cjc123_0366"
    INDEX 01 02:06:40
  TRACK 112 AUDIO
    TITLE "0:"
    INDEX 01 02:09:48
  TRACK 113 AUDIO
    TITLE "28:cjc123_0367"
    INDEX 01 02:10:18
  TRACK 114 AUDIO
    TITLE "0:"
    INDEX 01 02:11:15
  TRACK 115 AUDIO
    TITLE "29:cjc123_0368"
    INDEX 01 02:11:37
  TRACK 116 AUDIO
    TITLE "0:"
    INDEX 01 02:12:33
  TRACK 117 AUDIO
    TITLE "30:cjc123_0369"
    INDEX 01 02:12:46
  TRACK 118 AUDIO
    TITLE "0:"
    INDEX 01 02:13:50
  TRACK 119 AUDIO
    TITLE "31:cjc123_0370"
    INDEX 01 02:14:31
  TRACK 120 AUDIO
    TITLE "0:"
    INDEX 01 02:17:08
  TRACK 121 AUDIO
    TITLE "32:cjc123_0371"
    INDEX 01 02:17:45
  TRACK 122 AUDIO
    TITLE "0:"
    INDEX 01 02:20:32
  TRACK 123 AUDIO
    TITLE "28:cjc123_0372"
    INDEX 01 02:21:06
  TRACK 124 AUDIO
    TITLE "0:"
    INDEX 01 02:22:15
  TRACK 125 AUDIO
    TITLE "29:cjc123_0373"
    INDEX 01 02:22:29
  TRACK 126 AUDIO
    TITLE "0:"
    INDEX 01 02:23:17
  TRACK 127 AUDIO
    TITLE "30:cjc123_0374"
    INDEX 01 02:23:25
  TRACK 128 AUDIO
    TITLE "0:"
    INDEX 01 02:24:38
  TRACK 129 AUDIO
    TITLE "31:cjc123_0375"
    INDEX 01 02:25:12
  TRACK 130 AUDIO
    TITLE "0:"
    INDEX 01 02:28:08
  TRACK 131 AUDIO
    TITLE "32:cjc123_0376"
    INDEX 01 02:28:37
  TRACK 132 AUDIO
    TITLE "0:"
    INDEX 01 02:31:26
  TRACK 133 AUDIO
    TITLE "28:cjc123_0377"
    INDEX 01 02:31:69
  TRACK 134 AUDIO
    TITLE "0:"
    INDEX 01 02:32:74
  TRACK 135 AUDIO
    TITLE "29:cjc123_0378"
    INDEX 01 02:33:21
  TRACK 136 AUDIO
    TITLE "0:"
    INDEX 01 02:34:36
  TRACK 137 AUDIO
    TITLE "30:cjc123_0379"
    INDEX 01 02:34:52
  TRACK 138 AUDIO
    TITLE "0:"
    INDEX 01 02:35:53
  TRACK 139 AUDIO
    TITLE "31:cjc123_0380"
    INDEX 01 02:36:33
  TRACK 140 AUDIO
    TITLE "0:"
    INDEX 01 02:39:33
  TRACK 141 AUDIO
    TITLE "32:cjc123_0381"
    INDEX 01 02:40:00
  TRACK 142 AUDIO
    TITLE "0:"
    INDEX 01 02:43:12
  TRACK 143 AUDIO
    TITLE "28:cjc123_0382"
    INDEX 01 02:43:63
  TRACK 144 AUDIO
    TITLE "0:"
    INDEX 01 02:44:56
  TRACK 145 AUDIO
    TITLE "29:cjc123_0383"
    INDEX 01 02:44:74
  TRACK 146 AUDIO
    TITLE "0:"
    INDEX 01 02:46:02
  TRACK 147 AUDIO
    TITLE "30:cjc123_0384"
    INDEX 01 02:46:12
  TRACK 148 AUDIO
    TITLE "0:"
    INDEX 01 02:47:15
  TRACK 149 AUDIO
    TITLE "31:cjc123_0385"
    INDEX 01 02:48:05
  TRACK 150 AUDIO
    TITLE "0:"
    INDEX 01 02:52:14
  TRACK 151 AUDIO
    TITLE "32:cjc123_0386"
    INDEX 01 02:52:54
  TRACK 152 AUDIO
    TITLE "0:"
    INDEX 01 02:55:56
